<svg width="142" height="103" viewBox="0 0 142 103" fill="none" xmlns="http://www.w3.org/2000/svg">
<path d="M54.3657 58.1308V77.0298H47.6345V74.9431C46.9044 75.8337 46.0708 76.5016 45.131 76.9456C44.1913 77.3896 43.1466 77.6136 41.9972 77.6136C39.1636 77.6136 36.8077 76.6609 34.9295 74.7554C33.0499 72.85 32.1115 70.4514 32.1115 67.5583C32.1115 64.6652 33.0292 62.3365 34.8673 60.4038C36.7042 58.4712 38.9824 57.5043 41.7033 57.5043C42.9369 57.5043 44.0243 57.6997 44.9641 58.0881C45.9025 58.4777 46.7944 59.1042 47.6345 59.965V58.1295H54.3657V58.1308ZM40.5344 70.6663C41.3681 71.4999 42.3816 71.9167 43.5764 71.9167C44.7712 71.9167 45.7847 71.4999 46.6184 70.6663C47.452 69.8326 47.8688 68.8191 47.8688 67.6243C47.8688 66.4295 47.452 65.3745 46.6184 64.5409C45.7847 63.7073 44.7712 63.2905 43.5764 63.2905C42.3816 63.2905 41.3681 63.7138 40.5344 64.5616C39.7008 65.4095 39.284 66.4295 39.284 67.6243C39.284 68.8191 39.7008 69.8326 40.5344 70.6663Z" fill="#1E212B"/>
<path d="M65.3685 77.0297H58.1196V49.199H69.6544C72.5514 49.199 74.8853 49.9795 76.6548 51.5393C78.4243 53.1004 79.3084 55.3839 79.3084 58.3935C79.3084 61.4031 78.5072 63.7991 76.9046 65.4146C75.3021 67.0313 72.9695 67.8391 69.9043 67.8391H65.3672V77.0297H65.3685ZM67.7658 62.014C69.1431 62.014 70.1424 61.7383 70.7625 61.1869C71.3825 60.6354 71.6919 59.7539 71.6919 58.5423C71.6919 57.4136 71.3683 56.5657 70.7211 56C70.0738 55.4356 69.1017 55.1535 67.8072 55.1535H65.3685V62.014H67.7658Z" fill="#1E212B"/>
<path d="M87.0311 68.8747C87.0583 70.3206 87.413 71.3898 88.0939 72.085C88.7747 72.7801 89.7961 73.127 91.1578 73.127C91.9358 73.127 92.561 72.9885 93.0335 72.7102C93.506 72.4332 93.9512 71.9736 94.3681 71.3342H100.787C100.121 73.6137 98.9388 75.2602 97.2443 76.2738C95.5486 77.2874 93.5474 77.7948 91.242 77.7948C87.879 77.7948 85.2111 76.8925 83.2384 75.0855C81.2643 73.2797 80.278 70.8475 80.278 67.79C80.278 64.3998 81.2993 61.864 83.3419 60.1825C85.3846 58.501 88.0032 57.6609 91.2005 57.6609C94.6192 57.6609 97.1201 58.7379 98.7045 60.8918C100.289 63.0458 101.081 65.7072 101.081 68.8747H87.0324H87.0311ZM93.5124 62.7623C92.8315 62.2212 92.0186 61.9494 91.075 61.9494C90.0187 61.9494 89.1592 62.2135 88.4912 62.7416C87.8246 63.2697 87.3936 64.0192 87.1994 64.9914H94.8651C94.6425 64.0477 94.192 63.3034 93.5111 62.7623H93.5124Z" fill="#1E212B"/>
<path d="M124.654 58.1308V77.0298H118.053V74.9431C117.337 75.8337 116.519 76.5016 115.597 76.9456C114.675 77.3896 113.65 77.6136 112.523 77.6136C109.744 77.6136 107.433 76.6609 105.591 74.7554C103.748 72.85 102.826 70.4514 102.826 67.5583C102.826 64.6652 103.727 62.3365 105.529 60.4038C107.331 58.4712 109.566 57.5043 112.234 57.5043C113.444 57.5043 114.51 57.6997 115.431 58.0881C116.353 58.4777 117.227 59.1042 118.051 59.965V58.1295H124.653L124.654 58.1308ZM110.907 70.6663C111.741 71.4999 112.754 71.9167 113.949 71.9167C115.144 71.9167 116.158 71.4999 116.991 70.6663C117.825 69.8326 118.242 68.8191 118.242 67.6243C118.242 66.4295 117.825 65.3745 116.991 64.5409C116.158 63.7073 115.144 63.2905 113.949 63.2905C112.754 63.2905 111.741 63.7138 110.907 64.5616C110.074 65.4095 109.657 66.4295 109.657 67.6243C109.657 68.8191 110.074 69.8326 110.907 70.6663Z" fill="#1E212B"/>
<path d="M134.622 58.1307V61.2464C135.387 60.0529 136.241 59.1908 137.183 58.6627C138.126 58.1358 139.308 57.8705 140.729 57.8705H141.05C141.196 57.8705 141.341 57.8783 141.487 57.8938C141.621 57.908 141.792 57.9287 142 57.9546V64.3298C141.727 64.1913 141.481 64.08 141.262 63.9958C141.043 63.913 140.825 63.8431 140.606 63.7874C140.442 63.7318 140.258 63.6981 140.053 63.6839C139.849 63.6696 139.622 63.6632 139.376 63.6632C137.763 63.6632 136.569 64.0942 135.789 64.955C135.01 65.8158 134.622 67.1491 134.622 68.9549V77.0297H127.891V58.1307H134.622Z" fill="#1E212B"/>
<path d="M11.7717 35.219C10.9938 35.219 10.4216 35.8468 10.4216 36.5782C10.4216 37.3095 10.9925 37.9373 11.7717 37.9373H24.2295C25.0075 37.9373 25.5797 37.3095 25.5797 36.5782C25.5797 35.7937 24.957 35.219 24.2295 35.219H11.7717Z" fill="url(#paint0_linear_1496_4308)"/>
<path d="M22.8276 33.4067C23.6056 33.4067 24.1777 32.7789 24.1777 32.0475C24.1777 31.2631 23.5551 30.6884 22.8276 30.6884H13.2254C12.4474 30.6884 11.8753 31.3162 11.8753 32.0475C11.8235 32.7789 12.4461 33.4067 13.2254 33.4067H22.8276Z" fill="url(#paint1_linear_1496_4308)"/>
<path d="M33.1004 58.7314C33.6376 58.1281 34.2266 57.6013 34.866 57.1495C33.8512 54.303 32.3108 51.7607 30.896 49.4061C28.9362 46.2373 27.1304 43.2238 27.1304 40.1392H8.92395C8.92395 43.1721 7.06641 46.1855 5.15839 49.3544C2.73388 53.3011 0 57.7683 0 63.3797C0 73.3535 8.09809 81.5098 18.0019 81.5098C23.6561 81.5098 28.7187 78.8484 32.0247 74.7114C30.7225 72.6778 30.0636 70.3284 30.0636 67.7084C30.0636 64.027 31.0862 61.0057 33.1017 58.7314H33.1004Z" fill="url(#paint2_linear_1496_4308)"/>
<path d="M17.435 28.471C17.5385 28.5228 17.7444 28.471 17.7961 28.3675C18.3631 27.4847 20.4265 24.523 24.6567 23.3282L24.2438 21.3024C19.3948 23.6401 17.6421 27.0161 17.2809 28.0555C17.1774 28.2109 17.2809 28.4193 17.4363 28.471H17.435Z" fill="#654236"/>
<path d="M7.58289 24.2109C10.4203 26.2885 14.4953 26.6523 16.6609 26.704C14.7516 21.7178 9.64496 19.1716 7.68516 18.1853L7.73693 18.1335C12.6882 19.4318 16.0926 22.4971 17.7948 24.9902C18.2595 22.9644 17.9502 20.3664 15.2681 18.3924C11.2449 15.432 3.71378 16.0546 3.71378 16.0546C3.71378 16.0546 3.55845 21.2492 7.58289 24.2109Z" fill="#8ED081"/>
<defs>
<linearGradient id="paint0_linear_1496_4308" x1="-1.92355" y1="48.3978" x2="25.5149" y2="32.1201" gradientUnits="userSpaceOnUse">
<stop stop-color="#FECD26"/>
<stop offset="1" stop-color="#FD870C"/>
</linearGradient>
<linearGradient id="paint1_linear_1496_4308" x1="-3.95846" y1="45.0904" x2="23.4813" y2="28.8127" gradientUnits="userSpaceOnUse">
<stop stop-color="#FECD26"/>
<stop offset="1" stop-color="#FD870C"/>
</linearGradient>
<linearGradient id="paint2_linear_1496_4308" x1="8.2806" y1="65.3447" x2="35.5741" y2="49.1537" gradientUnits="userSpaceOnUse">
<stop stop-color="#FECD26"/>
<stop offset="1" stop-color="#FD870C"/>
</linearGradient>
</defs>
</svg>
