<?xml version="1.0" encoding="UTF-8"?>
<svg width="201px" height="37px" viewBox="0 0 201 37" version="1.1" xmlns="http://www.w3.org/2000/svg" xmlns:xlink="http://www.w3.org/1999/xlink">
    <title>553432B2-2EE9-4DB7-B47B-1AB511E0EC04</title>
    <g id="homepage" stroke="none" stroke-width="1" fill="none" fill-rule="evenodd">
        <g transform="translate(-150.000000, -42.000000)" fill-rule="nonzero" id="menu">
            <g transform="translate(150.000000, 41.000000)">
                <g id="logo" transform="translate(0.000000, 1.860000)">
                    <g id="Group_24" transform="translate(31.945000, 4.412000)" fill="#1B114A">
                        <path d="M0,24.849 L0,1.213 L12.438,1.213 C16.938,1.213 19.238,4.083 19.238,7.237 C19.374384,9.79343263 17.6565306,12.0791262 15.163,12.659 C17.8830835,13.2175688 19.8012007,15.6600391 19.699,18.435 C19.699,22.014 17.36,24.849 12.824,24.849 L0,24.849 Z M14.1,8.123 C14.1033809,7.41338602 13.8031054,6.7362062 13.274926,6.26229701 C12.7467465,5.78838783 12.0410984,5.56300234 11.336,5.643 L5.028,5.643 L5.028,10.604 L11.336,10.604 C12.0444312,10.6975843 12.7583872,10.4769528 13.2905085,10.0000044 C13.8226298,9.52305613 14.1197874,8.83741131 14.104,8.123 L14.1,8.123 Z M14.561,17.723 C14.5641724,16.9506461 14.2364259,16.2139112 13.660646,15.699112 C13.0848662,15.1843128 12.3161857,14.9407429 11.549,15.03 L5.029,15.03 L5.029,20.4160068 L11.549,20.4160068 C13.43,20.419 14.564,19.427 14.564,17.726 L14.561,17.723 Z" id="Path_50"></path>
                        <path d="M21.275,16.451 C21.2109777,14.0726558 22.1202059,11.7711689 23.7924294,10.078748 C25.464653,8.38632719 27.7550586,7.4495348 30.134,7.485 C35.272,7.485 38.71,11.312 38.71,16.876 L38.71,17.941 L25.985,17.941 C26.304,20.032 28.005,21.768 30.911,21.768 C32.5704051,21.7552508 34.1738272,21.1663395 35.447,20.102 L37.467,23.079 C35.4774355,24.6910442 32.9744034,25.5336701 30.415,25.453 C25.209,25.451 21.275,21.941 21.275,16.451 Z M30.134,11.171 C27.9757993,11.0369827 26.111554,12.6644631 25.953,14.821 L34.385,14.821 C34.3160623,13.7690068 33.8265044,12.7890638 33.0267361,12.1021774 C32.2269679,11.4152911 31.1843413,11.0793071 30.134,11.17 L30.134,11.171 Z" id="Path_51"></path>
                        <path d="M41.544,25.026 L41.544,11.844 L38.395,11.844 L39.964,7.914 L41.541,7.914 L41.541,7.205 C41.541,3.343 43.841,1.039 47.282,1.039 C48.9319897,0.939536594 50.5491609,1.5299037 51.747,2.669 L50.047,5.397 C49.5332282,4.93548842 48.8589608,4.69385797 48.169,4.724 C46.893,4.724 46.043,5.539 46.043,7.204 L46.043,7.913 L50.464,7.913 L49.206,11.846 L46.048,11.846 L46.048,25.028 L41.544,25.026 Z" id="Path_52"></path>
                        <path d="M49.54,16.451 C49.5181272,12.7825272 51.7120918,9.46342961 55.0957659,8.04606552 C58.47944,6.62870143 62.3839717,7.39324159 64.9831924,9.98210682 C67.5824131,12.5709721 68.3625341,16.4724206 66.9586889,19.8617259 C65.5548437,23.2510311 62.2445309,25.4582281 58.576,25.451 C56.1553161,25.5554283 53.8013962,24.6420382 52.0847059,22.9321873 C50.3680155,21.2223364 49.4452359,18.8720815 49.54,16.451 L49.54,16.451 Z M62.97,16.451 C62.97,13.793 61.411,11.49 58.576,11.49 C55.776,11.49 54.218,13.79 54.218,16.451 C54.218,19.144 55.777,21.451 58.576,21.451 C61.415,21.447 62.974,19.141 62.974,16.451 L62.97,16.451 Z" id="Path_53"></path>
                        <path d="M69.224,25.026 L69.224,7.91 L73.724,7.91 L73.724,10.21 C75.0744794,8.56862016 77.0576225,7.57686691 79.181,7.481 L79.181,11.875 C78.7727399,11.7947594 78.3569557,11.7592166 77.941,11.769 C77.8476667,11.769 77.753,11.7723333 77.657,11.779 C75.4136758,11.9744418 73.6997681,13.8653197 73.725,16.117 L73.725,25.022 L69.224,25.026 Z" id="Path_54"></path>
                        <path d="M79.182,16.451 C79.1179777,14.0726558 80.0272059,11.7711689 81.6994294,10.078748 C83.371653,8.38632719 85.6620586,7.4495348 88.041,7.485 C93.179,7.485 96.617,11.312 96.617,16.876 L96.617,17.941 L83.895,17.941 C84.214,20.032 85.915,21.768 88.821,21.768 C90.4804051,21.7552508 92.0838272,21.1663395 93.357,20.102 L95.377,23.079 C93.3874355,24.6910442 90.8844034,25.5336701 88.325,25.453 C83.116,25.451 79.182,21.941 79.182,16.451 Z M88.041,11.171 C85.8824213,11.0364116 84.0175503,12.6640489 83.859,14.821 L92.293,14.821 C92.2240731,13.7688176 91.7343753,12.7887103 90.9343846,12.1017944 C90.1343938,11.4148785 89.0915056,11.0790236 88.041,11.17 L88.041,11.171 Z" id="Path_55"></path>
                        <path d="M98.229,21.695 L100.001,19.427 C101.854796,21.5873483 104.560308,22.8294144 107.407,22.827 C111.624,22.827 112.971,20.559 112.971,18.716 C112.971,12.616 98.971,16.023 98.971,7.589 C98.971,3.689 102.444,0.998 107.121,0.998 C110.253847,0.878274334 113.291383,2.08813092 115.484,4.329 L113.712,6.491 C111.950797,4.59970348 109.455757,3.56542425 106.873,3.656 C104.073,3.656 102.018,5.18 102.018,7.412 C102.018,12.727 116.018,9.68 116.018,18.504 C116.018,21.904 113.68,25.45 107.301,25.45 C103.874123,25.5810907 100.560772,24.2096583 98.229,21.695 L98.229,21.695 Z" id="Path_56"></path>
                        <path d="M128.941,25.026 L128.941,23.077 C127.488534,24.6586045 125.417047,25.5259258 123.271,25.451 C121.720355,25.5227544 120.20771,24.9578645 119.083672,23.8872624 C117.959634,22.8166602 117.321797,21.3333001 117.318,19.781 C117.318,15.919 120.365,14.147 123.271,14.147 C125.407855,14.0390816 127.483189,14.8809277 128.941,16.447 L128.941,13.364 C128.941,11.096 127.098,9.785 124.618,9.785 C122.601306,9.74439514 120.67416,10.6168293 119.374,12.159 L118.134,10.316 C119.898348,8.42923694 122.391227,7.395853 124.973,7.481 C128.623,7.481 131.6,9.111 131.6,13.257 L131.6,25.022 L128.941,25.026 Z M128.941,21.412 L128.941,20.812 C128.959606,18.2301907 126.900321,16.1125397 124.319,16.059 L124.264,16.059 C121.748,16.059 120.012,17.618 120.012,19.78 C120.012,21.98 121.748,23.536 124.264,23.536 C126.071631,23.6087103 127.806748,22.8203581 128.941,21.411 L128.941,21.412 Z" id="Path_57"></path>
                        <polygon id="Path_58" points="133.208 25.026 133.208 1.39 135.866 1.39 135.866 25.026"></polygon>
                        <path d="M137.474,16.451 C137.474,11.49 141.018,7.485 145.908,7.485 C151.082,7.485 154.129,11.525 154.129,16.663 L154.129,17.336 L140.309,17.336 C140.330484,18.9359913 140.990181,20.4611177 142.14147,21.5724089 C143.292759,22.6837001 144.840249,23.2890805 146.44,23.254 C148.43475,23.2617952 150.349308,22.4693159 151.755,21.054 L153.031,22.79 C151.212685,24.5523455 148.762457,25.5100966 146.231,25.448 C141.128,25.4508418 137.474,21.801 137.474,16.451 Z M145.874,9.683 C142.224,9.683 140.417,12.766 140.274,15.353 L151.507,15.353 C151.542892,13.8448625 150.962211,12.3873082 149.899086,11.3170121 C148.835962,10.246716 147.382345,9.6562487 145.874,9.682 L145.874,9.683 Z" id="Path_59"></path>
                        <path d="M154.447,22.967 L155.794,21.053 C157.255359,22.6088096 159.2935,23.4933064 161.428,23.498 C164.05,23.498 165.503,22.258 165.503,20.557 C165.503,16.411 154.903,18.962 154.903,12.619 C154.903,9.926 157.171,7.693 161.246,7.693 C163.61292,7.6044874 165.910268,8.50307173 167.589,10.174 L166.349,12.017 C165.04752,10.5844158 163.183543,9.79423568 161.249,9.855 C158.91,9.855 157.457,11.025 157.457,12.548 C157.457,16.269 168.057,13.824 168.057,20.486 C168.057,23.356 165.757,25.66 161.357,25.66 C158.777497,25.7737038 156.269305,24.7961984 154.447,22.967 Z" id="Path_60"></path>
                    </g>
                    <g id="Group_25" transform="translate(0.000000, 0.140000)">
                        <path d="M14.847,11.16 C17.26028,11.1596612 19.6193138,11.8759332 21.625,13.218 C22.4979836,10.9040776 22.4873026,8.34954144 21.595,6.043 C20.0272964,2.50541045 16.5889186,0.163034957 12.723,-0.001 L3.78,-0.001 C1.224,-0.001 0,1.224 0,2.735 L0,11.16 L14.847,11.16 Z" id="Path_61" fill="#FF315E"></path>
                        <path d="M26.786,21.818 C26.4616704,18.3158317 24.5621841,15.1512477 21.624,13.218 C20.1790493,16.9763851 16.5685793,19.4566452 12.542,19.457 L0,19.457 L0,32.193 C0,33.5245585 1.07944147,34.604 2.411,34.604 L15.111,34.604 C18.4050392,34.604 21.5471255,33.2182867 23.7682809,30.7857648 C25.9894363,28.3532429 27.0846918,25.0984691 26.786,21.818 L26.786,21.818 Z" id="Path_62" fill="#1B114A"></path>
                        <path d="M21.625,13.219 C19.6193138,11.8769332 17.26028,11.1606612 14.847,11.1609999 L0,11.1609999 L0,19.461 L12.543,19.461 C16.5703325,19.460168 20.1810207,16.9785654 21.625,13.219 Z" id="Path_63" fill="#6E5AFB"></path>
                    </g>
                </g>
            </g>
        </g>
    </g>
</svg>